<mxfile host="app.diagrams.net" agent="Mozilla/5.0 (Windows NT 10.0; Win64; x64) AppleWebKit/537.36 (KHTML, like Gecko) Chrome/131.0.0.0 Safari/537.36 GLS/100.10.9766.98" version="25.0.3">
  <diagram name="Page-1" id="uEcrJ6mdZMf3yO1zMUEK">
    <mxGraphModel dx="315" dy="362" grid="1" gridSize="10" guides="1" tooltips="1" connect="1" arrows="1" fold="1" page="1" pageScale="1" pageWidth="850" pageHeight="1100" math="0" shadow="0">
      <root>
        <mxCell id="0" />
        <mxCell id="1" parent="0" />
        <mxCell id="GO0dVXzbmXSwMS4jJn_O-63" value="&amp;nbsp;" style="text;html=1;align=center;verticalAlign=middle;resizable=0;points=[];autosize=1;strokeColor=none;fillColor=none;" parent="1" vertex="1">
          <mxGeometry x="495" y="328" width="30" height="30" as="geometry" />
        </mxCell>
        <mxCell id="InI7tBc7oBHLIup6E3MP-1" value="Bill" style="swimlane;fontStyle=0;childLayout=stackLayout;horizontal=1;startSize=26;fillColor=none;horizontalStack=0;resizeParent=1;resizeParentMax=0;resizeLast=0;collapsible=1;marginBottom=0;whiteSpace=wrap;html=1;" parent="1" vertex="1">
          <mxGeometry x="940" y="485" width="150" height="140" as="geometry" />
        </mxCell>
        <mxCell id="InI7tBc7oBHLIup6E3MP-3" value="&lt;div&gt;- billId: int&lt;/div&gt;&lt;div&gt;- visitId: int&lt;/div&gt;&lt;div&gt;- date: Date&lt;/div&gt;&lt;div&gt;- time: Time&lt;/div&gt;&lt;div&gt;- subTotal: double&lt;/div&gt;&lt;div&gt;- total: double&lt;/div&gt;&lt;div&gt;- insuranceDeduction: int&lt;/div&gt;&lt;div&gt;&lt;br&gt;&lt;/div&gt;" style="text;strokeColor=none;fillColor=none;align=left;verticalAlign=top;spacingLeft=4;spacingRight=4;overflow=hidden;rotatable=0;points=[[0,0.5],[1,0.5]];portConstraint=eastwest;whiteSpace=wrap;html=1;" parent="InI7tBc7oBHLIup6E3MP-1" vertex="1">
          <mxGeometry y="26" width="150" height="114" as="geometry" />
        </mxCell>
        <mxCell id="InI7tBc7oBHLIup6E3MP-6" value="Visit" style="swimlane;fontStyle=0;childLayout=stackLayout;horizontal=1;startSize=26;fillColor=none;horizontalStack=0;resizeParent=1;resizeParentMax=0;resizeLast=0;collapsible=1;marginBottom=0;whiteSpace=wrap;html=1;" parent="1" vertex="1">
          <mxGeometry x="660" y="490" width="150" height="130" as="geometry" />
        </mxCell>
        <mxCell id="InI7tBc7oBHLIup6E3MP-7" value="&lt;div&gt;&lt;span style=&quot;background-color: initial;&quot;&gt;- visitId: int&lt;/span&gt;&lt;/div&gt;&lt;div&gt;- dentistId: int&lt;/div&gt;&lt;div&gt;- patientId: int&lt;/div&gt;&lt;div&gt;- visitType: String&lt;/div&gt;&lt;div&gt;- date: Date&lt;/div&gt;&lt;div&gt;- time: Time&lt;/div&gt;&lt;div&gt;&lt;br&gt;&lt;/div&gt;" style="text;strokeColor=none;fillColor=none;align=left;verticalAlign=top;spacingLeft=4;spacingRight=4;overflow=hidden;rotatable=0;points=[[0,0.5],[1,0.5]];portConstraint=eastwest;whiteSpace=wrap;html=1;" parent="InI7tBc7oBHLIup6E3MP-6" vertex="1">
          <mxGeometry y="26" width="150" height="104" as="geometry" />
        </mxCell>
        <mxCell id="InI7tBc7oBHLIup6E3MP-11" value="Patient" style="swimlane;fontStyle=0;childLayout=stackLayout;horizontal=1;startSize=26;fillColor=none;horizontalStack=0;resizeParent=1;resizeParentMax=0;resizeLast=0;collapsible=1;marginBottom=0;whiteSpace=wrap;html=1;" parent="1" vertex="1">
          <mxGeometry x="430" y="310" width="150" height="130" as="geometry" />
        </mxCell>
        <mxCell id="InI7tBc7oBHLIup6E3MP-12" value="&lt;div&gt;&lt;span style=&quot;background-color: initial;&quot;&gt;- patientId: int&lt;/span&gt;&lt;/div&gt;&lt;div&gt;&lt;span style=&quot;background-color: initial;&quot;&gt;- firstName: String&lt;/span&gt;&lt;/div&gt;&lt;div&gt;&lt;span style=&quot;background-color: initial;&quot;&gt;- lastName: String&lt;/span&gt;&lt;/div&gt;&lt;div&gt;&lt;span style=&quot;background-color: initial;&quot;&gt;- dateOfBirth: Date&lt;/span&gt;&lt;/div&gt;&lt;div&gt;- loginPassword: String&lt;/div&gt;" style="text;strokeColor=none;fillColor=none;align=left;verticalAlign=top;spacingLeft=4;spacingRight=4;overflow=hidden;rotatable=0;points=[[0,0.5],[1,0.5]];portConstraint=eastwest;whiteSpace=wrap;html=1;" parent="InI7tBc7oBHLIup6E3MP-11" vertex="1">
          <mxGeometry y="26" width="150" height="104" as="geometry" />
        </mxCell>
        <mxCell id="InI7tBc7oBHLIup6E3MP-20" value="" style="edgeStyle=entityRelationEdgeStyle;fontSize=12;html=1;endArrow=ERmandOne;startArrow=ERmandOne;rounded=0;startSize=8;endSize=8;curved=1;" parent="1" source="InI7tBc7oBHLIup6E3MP-1" target="InI7tBc7oBHLIup6E3MP-6" edge="1">
          <mxGeometry width="100" height="100" relative="1" as="geometry">
            <mxPoint x="750" y="830" as="sourcePoint" />
            <mxPoint x="850" y="730" as="targetPoint" />
          </mxGeometry>
        </mxCell>
        <mxCell id="InI7tBc7oBHLIup6E3MP-21" value="Dentist" style="swimlane;fontStyle=0;childLayout=stackLayout;horizontal=1;startSize=26;fillColor=none;horizontalStack=0;resizeParent=1;resizeParentMax=0;resizeLast=0;collapsible=1;marginBottom=0;whiteSpace=wrap;html=1;" parent="1" vertex="1">
          <mxGeometry x="425" y="650" width="160" height="140" as="geometry" />
        </mxCell>
        <mxCell id="InI7tBc7oBHLIup6E3MP-22" value="&lt;div&gt;&lt;span style=&quot;background-color: initial;&quot;&gt;- dentistId: int&lt;/span&gt;&lt;/div&gt;&lt;div&gt;&lt;span style=&quot;background-color: initial;&quot;&gt;- firstName: String&lt;/span&gt;&lt;/div&gt;&lt;div&gt;&lt;span style=&quot;background-color: initial;&quot;&gt;- lastName: String&lt;/span&gt;&lt;/div&gt;&lt;div&gt;&lt;span style=&quot;background-color: initial;&quot;&gt;- dateOfBirth: Date&lt;/span&gt;&lt;/div&gt;&lt;div&gt;- allowedOperations: String&lt;/div&gt;&lt;div&gt;- specialty: String&lt;/div&gt;&lt;div&gt;- loginPassword&lt;span style=&quot;background-color: initial;&quot;&gt;&lt;/span&gt;&lt;span style=&quot;background-color: initial;&quot;&gt;: String&lt;/span&gt;&lt;/div&gt;" style="text;strokeColor=none;fillColor=none;align=left;verticalAlign=top;spacingLeft=4;spacingRight=4;overflow=hidden;rotatable=0;points=[[0,0.5],[1,0.5]];portConstraint=eastwest;whiteSpace=wrap;html=1;" parent="InI7tBc7oBHLIup6E3MP-21" vertex="1">
          <mxGeometry y="26" width="160" height="114" as="geometry" />
        </mxCell>
        <mxCell id="InI7tBc7oBHLIup6E3MP-23" value="" style="edgeStyle=entityRelationEdgeStyle;fontSize=12;html=1;endArrow=ERmandOne;startArrow=ERmandOne;rounded=0;startSize=8;endSize=8;curved=1;" parent="1" source="InI7tBc7oBHLIup6E3MP-6" target="InI7tBc7oBHLIup6E3MP-21" edge="1">
          <mxGeometry width="100" height="100" relative="1" as="geometry">
            <mxPoint x="1070" y="570" as="sourcePoint" />
            <mxPoint x="1010" y="420" as="targetPoint" />
          </mxGeometry>
        </mxCell>
        <mxCell id="InI7tBc7oBHLIup6E3MP-24" value="" style="edgeStyle=entityRelationEdgeStyle;fontSize=12;html=1;endArrow=ERmandOne;startArrow=ERmandOne;rounded=0;startSize=8;endSize=8;curved=1;" parent="1" source="InI7tBc7oBHLIup6E3MP-6" target="InI7tBc7oBHLIup6E3MP-11" edge="1">
          <mxGeometry width="100" height="100" relative="1" as="geometry">
            <mxPoint x="670" y="565" as="sourcePoint" />
            <mxPoint x="640" y="722" as="targetPoint" />
          </mxGeometry>
        </mxCell>
      </root>
    </mxGraphModel>
  </diagram>
</mxfile>
